<?xml version="1.0" encoding="utf-8"?>
<!-- Generator: Adobe Illustrator 23.0.0, SVG Export Plug-In . SVG Version: 6.00 Build 0)  -->
<svg version="1.1" id="레이어_1" xmlns="http://www.w3.org/2000/svg" xmlns:xlink="http://www.w3.org/1999/xlink" x="0px"
	 y="0px" viewBox="0 0 456.9 168.6" style="enable-background:new 0 0 456.9 168.6;" xml:space="preserve">
<style type="text/css">

	*, *:before, *:after {
		fill : #acacac;
		box-sizing: border-box;
  		margin: 0;
  		padding: 0;
	}

	.st3{fill:#FFFFFF;}

.blob-btn {
  z-index: 1;
  position: relative;
  padding: 20px 46px;
  margin-bottom: 30px;
  text-align: center;
  text-transform: uppercase;
  color: #0fe0f5;
  font-size: 16px;
  font-weight: bold;
  background-color: transparent;
  outline: none;
  border: none;
  transition: color 0.5s;
  cursor: pointer;
}
.blob-btn:before {
  content: "";
  z-index: 1;
  position: absolute;
  left: 0;
  top: 0;
  width: 100%;
  height: 100%;
  border: 6px solid #0fe0f5;
}
.blob-btn:after {
  content: "";
  z-index: -2;
  position: absolute;
  left: 9px;
  top: 9px;
  width: 100%;
  height: 100%;
  border: 6px solid #222;
  transition: all 0.3s 0.2s;
}
.blob-btn:hover {
  color: #222;
}
.blob-btn:hover:after {
  transition: all 0.3s;
  left: 0;
  top: 0;
}
.blob-btn__inner {
  z-index: -1;
  overflow: hidden;
  position: absolute;
  left: 0;
  top: 0;
  width: 100%;
  height: 100%;
}
.blob-btn__blobs {
  position: relative;
  display: block;
  height: 100%;
  filter: url("#goo");
}
.blob-btn__blob {
  position: absolute;
  top: 6px;
  width: 25%;
  height: 100%;
  background: #0fe0f5;
  border-radius: 100%;
  transform: translate3d(0, 150%, 0) scale(1.7);
  transition: transform 0.45s;
}
@supports (filter: url("#goo")) {
  .blob-btn__blob {
    transform: translate3d(0, 150%, 0) scale(1.4);
  }
}
.blob-btn__blob:nth-child(1) {
  left: 0%;
  transition-delay: 0s;
}
.blob-btn__blob:nth-child(2) {
  left: 30%;
  transition-delay: 0.08s;
}
.blob-btn__blob:nth-child(3) {
  left: 60%;
  transition-delay: 0.16s;
}
.blob-btn__blob:nth-child(4) {
  left: 90%;
  transition-delay: 0.24s;
}
.blob-btn:hover .blob-btn__blob {
  transform: translateZ(0) scale(1.7);
}
@supports (filter: url("#goo")) {
  .blob-btn:hover .blob-btn__blob {
    transform: translateZ(0) scale(1.4);
  }
}
</style>
<g>
	<g>
		<path class="st3" d="M0,105c0-1,0.1-1.9,0.4-2.7c0.2-0.8,0.7-1.5,1.4-2.1c0.7-0.6,1.6-1.1,2.8-1.4c1.2-0.3,2.8-0.5,4.6-0.5h33.1
			c1.9,0,3.4,0.2,4.6,0.5c1.2,0.3,2.2,0.8,2.8,1.4c0.7,0.6,1.1,1.3,1.4,2.1c0.2,0.8,0.4,1.7,0.4,2.7c0,0.8-0.1,1.6-0.4,2.4
			c-0.2,0.8-0.7,1.5-1.4,2.1c-0.7,0.6-1.6,1.1-2.8,1.5c-1.2,0.4-2.8,0.6-4.6,0.6H9.2c-1.9,0-3.4-0.2-4.6-0.6
			c-1.2-0.4-2.2-0.9-2.8-1.5c-0.7-0.6-1.1-1.3-1.4-2.1C0.1,106.6,0,105.8,0,105z M26.5,115.7c3.7,0,6.9,0.5,9.5,1.4
			c2.6,0.9,4.8,2.2,6.5,4c1.7,1.8,3,3.9,3.8,6.5c0.9,2.6,1.4,5.5,1.6,8.8v10.2c-0.1,6.8-1.8,11.9-5.1,15.3
			c-3.3,3.4-8.7,5.1-16.3,5.1c-3.9,0-7.2-0.4-9.8-1.3c-2.6-0.9-4.8-2.2-6.4-3.9c-1.7-1.7-2.9-3.8-3.7-6.4c-0.8-2.5-1.3-5.4-1.5-8.7
			v-10.2c0.2-3.4,0.7-6.3,1.5-8.9c0.8-2.6,2-4.7,3.6-6.5c1.7-1.8,3.8-3.1,6.4-4C19.2,116.2,22.5,115.7,26.5,115.7z M6.4,86.3
			c0-1,0.1-1.9,0.4-2.7c0.2-0.8,0.7-1.5,1.4-2.1c0.7-0.6,1.6-1.1,2.8-1.4c1.2-0.3,2.8-0.5,4.6-0.5H36c1.9,0,3.4,0.2,4.6,0.5
			c1.2,0.3,2.2,0.8,2.8,1.4c0.7,0.6,1.1,1.3,1.4,2.1c0.2,0.8,0.4,1.7,0.4,2.7c0,0.8-0.1,1.6-0.4,2.4c-0.2,0.8-0.7,1.5-1.4,2.1
			c-0.7,0.6-1.6,1.1-2.8,1.5c-1.2,0.4-2.8,0.6-4.6,0.6H15.6c-1.9,0-3.4-0.2-4.6-0.6c-1.2-0.4-2.2-0.9-2.8-1.5
			c-0.7-0.6-1.1-1.3-1.4-2.1C6.5,87.9,6.4,87.1,6.4,86.3z M31.5,135.7c0-1.4-0.2-2.6-0.5-3.4c-0.3-0.9-0.7-1.5-1.2-2
			c-0.5-0.4-1.1-0.7-1.7-0.9c-0.6-0.1-1.2-0.2-1.7-0.2c-0.5,0-1.1,0.1-1.7,0.3c-0.6,0.2-1.1,0.5-1.6,1c-0.5,0.5-0.9,1.2-1.2,2.1
			c-0.3,0.9-0.5,2.1-0.6,3.5v10.9c0,1.5,0.2,2.7,0.5,3.6c0.3,0.8,0.7,1.5,1.2,2c0.5,0.5,1,0.8,1.6,0.9c0.6,0.1,1.2,0.2,1.8,0.2
			c0.5,0,1.1-0.1,1.7-0.2c0.6-0.1,1.1-0.4,1.6-0.9c0.5-0.5,0.9-1.1,1.2-2c0.3-0.8,0.5-2,0.6-3.6V135.7z M61.4,89.4
			c0-3.4,0.8-5.7,2.5-6.9c1.6-1.2,3.6-1.9,5.7-1.9c1.1,0,2.1,0.1,3.1,0.4c1,0.3,1.8,0.7,2.6,1.4c0.7,0.7,1.3,1.6,1.8,2.7
			c0.5,1.1,0.7,2.6,0.7,4.2v26.2h5.8c1.9,0,3.4,0.2,4.6,0.6c1.2,0.4,2.2,0.9,2.8,1.6c0.7,0.6,1.1,1.4,1.4,2.2
			c0.2,0.8,0.4,1.7,0.4,2.5c0,1-0.1,1.9-0.4,2.8c-0.2,0.8-0.7,1.6-1.4,2.2c-0.7,0.6-1.6,1.1-2.8,1.5c-1.2,0.4-2.8,0.6-4.6,0.6h-5.8
			v28.9c0,1.8-0.2,3.2-0.7,4.3c-0.5,1.1-1.1,2.1-1.8,2.7c-0.7,0.7-1.6,1.1-2.6,1.4c-1,0.3-2,0.4-3.1,0.4c-1.1,0-2.1-0.1-3.1-0.4
			c-1-0.3-1.9-0.7-2.6-1.4c-0.8-0.7-1.4-1.6-1.8-2.7c-0.4-1.1-0.7-2.6-0.7-4.3V89.4z"/>
		<path class="st3" d="M97,143.9c0-1,0.1-1.9,0.4-2.8c0.2-0.8,0.7-1.6,1.4-2.2c0.7-0.6,1.6-1.1,2.8-1.4c1.2-0.3,2.8-0.5,4.6-0.5
			h70.2c1.9,0,3.4,0.2,4.6,0.5c1.2,0.3,2.2,0.8,2.8,1.4c0.7,0.6,1.1,1.3,1.4,2.2c0.2,0.8,0.4,1.8,0.4,2.8c0,0.8-0.1,1.6-0.4,2.4
			c-0.2,0.8-0.7,1.5-1.4,2.2c-0.7,0.6-1.6,1.2-2.8,1.6c-1.2,0.4-2.8,0.6-4.6,0.6h-26.9v7.8c0,1.8-0.2,3.2-0.7,4.3
			c-0.5,1.1-1.1,2.1-1.8,2.7c-0.7,0.7-1.6,1.1-2.6,1.4c-1,0.3-2,0.4-3.1,0.4c-1.1,0-2.1-0.1-3.1-0.4c-1-0.3-1.9-0.7-2.6-1.4
			c-0.8-0.7-1.4-1.6-1.8-2.7c-0.4-1.1-0.7-2.6-0.7-4.3v-7.8h-27c-1.9,0-3.4-0.2-4.6-0.6c-1.2-0.4-2.2-0.9-2.8-1.6
			c-0.7-0.6-1.1-1.4-1.4-2.2C97.1,145.5,97,144.7,97,143.9z M112.1,131.9c-1.9,0-3.4-0.2-4.4-0.6c-1.1-0.4-1.9-1-2.5-1.7
			c-0.6-0.7-0.9-1.5-1.1-2.4c-0.1-0.9-0.2-1.9-0.2-2.9v-15.8c0-1.7,0.2-3.1,0.7-4.2c0.4-1.1,1-2,1.8-2.6c0.8-0.6,1.6-1.1,2.6-1.3
			c1-0.2,2-0.4,3.1-0.4h50v-4.8h-50.5c-1.7,0-3-0.2-4-0.7c-1-0.4-1.8-1-2.3-1.6c-0.5-0.6-0.9-1.3-1.1-2.1c-0.2-0.8-0.3-1.5-0.3-2.3
			c0-0.9,0.1-1.7,0.3-2.5c0.2-0.8,0.5-1.5,1.1-2.2c0.5-0.6,1.3-1.1,2.3-1.5c1-0.4,2.4-0.6,4-0.6h58.7c1.9,0,3.4,0.2,4.4,0.7
			c1.1,0.4,1.9,1,2.5,1.8c0.6,0.7,0.9,1.6,1.1,2.5c0.1,0.9,0.2,1.9,0.2,2.9v15.3c0,2.5-0.7,4.5-2,6.1c-1.3,1.6-3.3,2.4-5.9,2.4
			h-50.3v5.1h52.1c1.7,0,3,0.2,4,0.7c1,0.4,1.8,1,2.3,1.6c0.5,0.6,0.9,1.4,1.1,2.2c0.2,0.8,0.3,1.6,0.3,2.2c0,0.9-0.1,1.7-0.3,2.5
			c-0.2,0.8-0.5,1.5-1.1,2.2c-0.5,0.6-1.3,1.1-2.3,1.5c-1,0.4-2.4,0.6-4,0.6H112.1z"/>
		<path class="st3" d="M236.2,90c0-1.7,0.2-3.1,0.7-4.2c0.5-1.1,1.1-2.1,1.9-2.7c0.8-0.7,1.7-1.1,2.7-1.4c1-0.3,2.1-0.4,3.1-0.4
			c1.1,0,2.1,0.1,3.1,0.4c1,0.3,1.9,0.7,2.7,1.4c0.8,0.7,1.4,1.6,1.9,2.7c0.5,1.1,0.7,2.6,0.7,4.2v1.2c0,2.4,0.1,4.5,0.2,6.4
			c0.1,1.8,0.6,3.5,1.3,5.1c0.7,1.6,1.8,3,3.2,4.5c1.4,1.4,3.4,3.1,6,4.9c2.2,1.6,3.5,3.1,4.1,4.7c0.6,1.6,0.2,3.5-1.1,5.7
			c-0.7,1.1-1.6,2-2.7,2.6c-1,0.6-2.2,0.9-3.4,1c-0.7,0-1.5-0.1-2.3-0.3c-0.8-0.2-1.6-0.5-2.3-1.1c-2-1.4-3.8-3-5.5-4.7
			c-1.7-1.7-3.4-3.6-4.9-5.5c-1.3,2.1-2.9,4-4.6,5.7c-1.8,1.7-3.7,3.2-5.8,4.4c-0.9,0.5-1.8,1-2.9,1.3c-1,0.3-2.1,0.5-3.2,0.6
			c-1.1,0.1-2.3-0.1-3.5-0.6c-1.2-0.5-2.2-1.4-3-2.7c-1.3-2.2-1.7-4-1.1-5.7c0.6-1.6,2-3.2,4.1-4.7c2.5-1.8,4.4-3.4,5.9-4.9
			c1.4-1.5,2.5-3.1,3.2-4.7c0.7-1.6,1.2-3.4,1.4-5.2c0.2-1.9,0.3-4,0.3-6.4V90z M245.3,168.6c-3.2-0.1-5.9-0.6-8.1-1.7
			c-2.2-1.1-4-2.5-5.4-4.2c-1.3-1.7-2.3-3.7-2.9-5.9c-0.6-2.2-0.9-4.5-0.9-6.8c0-2.4,0.3-4.6,0.8-6.9c0.5-2.2,1.5-4.2,2.8-5.9
			c1.3-1.7,3.1-3.1,5.4-4.1c2.3-1,5.1-1.6,8.5-1.7h45.3c3.4,0,6.3,0.5,8.5,1.6c2.3,1,4,2.4,5.4,4.1c1.3,1.7,2.2,3.7,2.8,6
			c0.5,2.3,0.8,4.6,0.8,6.9c0,2.4-0.3,4.6-0.9,6.8c-0.6,2.2-1.6,4.1-3,5.9s-3.2,3.1-5.4,4.2c-2.2,1.1-4.9,1.7-8,1.7H245.3z
			 M286.4,154.8c2-0.1,3.4-0.5,4.2-1.2c0.9-0.6,1.3-1.9,1.3-3.7c0-1.9-0.4-3.1-1.3-3.8c-0.9-0.6-2.3-1-4.2-1.2h-36.6
			c-2,0.1-3.4,0.5-4.2,1.2c-0.9,0.6-1.3,1.9-1.3,3.8c0,1.8,0.4,3,1.3,3.7c0.9,0.6,2.3,1,4.2,1.2H286.4z M292.7,111h-8.4v8.1
			c0,3.5-0.6,5.9-1.9,7.1c-1.2,1.2-2.9,1.8-5.1,1.8c-2.2,0-3.9-0.6-5.2-1.8s-2-3.6-2-7.1V89.4c0-3.4,0.6-5.7,1.9-6.9
			c1.3-1.2,3-1.9,5.2-1.9c2.1,0,3.8,0.6,5.1,1.9c1.3,1.2,2,3.6,2,6.9v7.2h8.4v-7.2c0-3.4,0.6-5.7,1.9-6.9c1.3-1.2,3-1.9,5.2-1.9
			c2.1,0,3.8,0.6,5.1,1.9c1.3,1.2,2,3.6,2,6.9v29.6c0,3.5-0.6,5.9-1.9,7.1c-1.2,1.2-2.9,1.8-5.1,1.8s-3.9-0.6-5.2-1.8
			c-1.3-1.2-2-3.6-2-7.1V111z"/>
		<path class="st3" d="M353.3,81.9c1.8,0,3.2,0.2,4.2,0.6c1,0.4,1.8,0.9,2.3,1.5c0.5,0.6,0.9,1.4,1,2.4c0.1,0.9,0.2,2,0.2,3.2v11.3
			c0,2-0.2,4.2-0.7,6.6c-0.5,2.4-1.2,4.8-2.3,7.2c-1,2.4-2.4,4.7-4.1,6.8c-1.7,2.2-3.8,4-6.3,5.6c-2,1.2-3.8,1.6-5.5,1.2
			c-1.7-0.4-3.1-1.1-4.3-2.1c-0.7-0.5-1.3-1.2-1.8-2.1c-0.5-0.8-0.8-1.7-0.9-2.7c-0.1-0.9,0-1.9,0.3-2.9c0.3-1,0.8-1.8,1.6-2.6
			c2.2-2.1,4-4.2,5.4-6.5c1.4-2.2,2.2-4.8,2.2-7.9v-5.8h-17.5c-1.9,0-3.4-0.2-4.6-0.6c-1.2-0.4-2.2-0.9-2.8-1.5
			c-0.7-0.6-1.1-1.4-1.4-2.2c-0.2-0.8-0.4-1.8-0.4-2.8c0-0.8,0.1-1.6,0.4-2.5c0.2-0.8,0.7-1.6,1.4-2.2c0.7-0.6,1.6-1.2,2.8-1.6
			c1.2-0.4,2.8-0.6,4.6-0.6H353.3z M379.1,146.9h-50.6c-1.9,0-3.4-0.2-4.6-0.6c-1.2-0.4-2.2-0.9-2.8-1.6c-0.7-0.6-1.1-1.4-1.4-2.2
			c-0.2-0.8-0.4-1.7-0.4-2.5c0-1,0.1-1.9,0.4-2.8c0.2-0.8,0.7-1.6,1.4-2.2c0.7-0.6,1.6-1.1,2.8-1.5c1.2-0.4,2.8-0.6,4.6-0.6h58.8
			c1.9,0,3.4,0.2,4.4,0.6c1.1,0.4,1.9,0.9,2.5,1.5c0.6,0.6,0.9,1.4,1.1,2.2c0.1,0.8,0.2,1.8,0.2,2.8v19.6c0,1.7-0.2,3.1-0.7,4.2
			c-0.5,1.1-1.1,2.1-1.8,2.7c-0.7,0.7-1.6,1.1-2.6,1.4c-1,0.3-2,0.4-3.1,0.4c-2.2,0-4.1-0.6-5.7-1.9c-1.7-1.2-2.5-3.6-2.5-6.9V146.9
			z M378.1,89.4c0-3.4,0.8-5.7,2.5-6.9c1.6-1.2,3.6-1.9,5.7-1.9c1.1,0,2.1,0.1,3.1,0.4c1,0.3,1.8,0.7,2.6,1.4
			c0.7,0.7,1.3,1.6,1.8,2.7c0.5,1.1,0.7,2.6,0.7,4.2v7.7h8.4c1.9,0,3.4,0.2,4.6,0.7c1.2,0.4,2.2,1,2.8,1.7c0.7,0.7,1.1,1.4,1.4,2.3
			c0.2,0.8,0.4,1.7,0.4,2.5c0,1-0.1,2-0.4,2.8c-0.2,0.9-0.7,1.6-1.4,2.3c-0.7,0.6-1.6,1.2-2.8,1.6c-1.2,0.4-2.8,0.6-4.6,0.6h-8.4
			v8.6c0,1.8-0.2,3.2-0.7,4.3c-0.5,1.1-1.1,2.1-1.8,2.7c-0.7,0.7-1.6,1.1-2.6,1.4c-1,0.3-2,0.4-3.1,0.4c-1.1,0-2.1-0.1-3.1-0.4
			c-1-0.3-1.9-0.7-2.6-1.4c-0.8-0.7-1.4-1.6-1.8-2.7c-0.4-1.1-0.7-2.6-0.7-4.3V89.4z"/>
	</g>
	<g>
		<path class="st3" d="M456.8,40.4c-1.1-14.6-22.9-22.7-46.4-29.5c-23.5-6.8-61.2-20.8-59.1,0.4c1.2,5.5,7.9,6.9,7.9,6.9
			s9.4,2.9,0.9,6.9c-7,3.3-9.3,4.1-9.3,4.1s-10.9,3.1-6.3,14.3c3.8,9.3,25.9,19.6,69.9,17.4c0.5,2.1,2.6,4,5.5,4.8
			c3.8,1,7.4-0.3,8.1-3c0.3-0.9,0.1-1.9-0.3-2.8c5.5-0.5,11.2-1.3,17.3-2.2C445,57.8,457.9,54,456.8,40.4z"/>
		<path class="st3" d="M427,68.4c-2-0.6-3.9,0.2-4.3,1.6c-0.4,1.4,0.9,3,2.9,3.6c2,0.6,3.9-0.2,4.3-1.6C430.3,70.6,429,69,427,68.4z
			"/>
		<path class="st3" d="M423.1,74.6c-1.5-0.4-2.9,0.1-3.2,1.2c-0.3,1.1,0.7,2.2,2.1,2.6c1.5,0.4,2.9-0.1,3.2-1.2
			C425.5,76.2,424.6,75,423.1,74.6z"/>
	</g>
</g>
</svg>
